<svg width="692" height="612" viewBox="0 0 692 612" fill="none" xmlns="http://www.w3.org/2000/svg">
<path d="M278 456C234 456 201 445.5 179 424.5C157 403.167 146 372.667 146 333V239.5C146 199.5 157 169 179 148C201 127 234 116.5 278 116.5C321.667 116.5 354.5 127 376.5 148C398.5 169 409.5 199.5 409.5 239.5V333C409.5 372.667 398.5 403.167 376.5 424.5C354.5 445.5 321.667 456 278 456ZM278 403.5C301.667 403.5 319.5 397.333 331.5 385C343.5 372.333 349.5 354 349.5 330V242.5C349.5 218.5 343.5 200.333 331.5 188C319.5 175.333 301.667 169 278 169C254.333 169 236.333 175.333 224 188C212 200.333 206 218.5 206 242.5V330C206 354 212 372.333 224 385C236.333 397.333 254.333 403.5 278 403.5ZM456.254 525.5C449.921 526.833 446.087 525.833 444.754 522.5L432.754 481.5C432.087 479.5 432.421 477.833 433.754 476.5C435.087 475.167 437.254 474 440.254 473C448.921 471 456.087 467.167 461.754 461.5C467.754 455.833 472.254 448.167 475.254 438.5C478.254 428.833 479.754 417.333 479.754 404V128.5C479.754 124.5 481.587 122.5 485.254 122.5H533.754C537.754 122.5 539.754 124.5 539.754 128.5V400C539.754 424.667 536.587 445.667 530.254 463C523.921 480.667 514.587 494.667 502.254 505C490.254 515.333 474.921 522.167 456.254 525.5Z" fill="#FF523B"/>
<g filter="url(#filter0_d_1_10)">
<ellipse cx="280.5" cy="292.23" rx="47.5" ry="48.45" fill="#FFE8E8"/>
</g>
<defs>
<filter id="filter0_d_1_10" x="229" y="243.78" width="103" height="104.9" filterUnits="userSpaceOnUse" color-interpolation-filters="sRGB">
<feFlood flood-opacity="0" result="BackgroundImageFix"/>
<feColorMatrix in="SourceAlpha" type="matrix" values="0 0 0 0 0 0 0 0 0 0 0 0 0 0 0 0 0 0 127 0" result="hardAlpha"/>
<feOffset dy="4"/>
<feGaussianBlur stdDeviation="2"/>
<feComposite in2="hardAlpha" operator="out"/>
<feColorMatrix type="matrix" values="0 0 0 0 0 0 0 0 0 0 0 0 0 0 0 0 0 0 0.25 0"/>
<feBlend mode="normal" in2="BackgroundImageFix" result="effect1_dropShadow_1_10"/>
<feBlend mode="normal" in="SourceGraphic" in2="effect1_dropShadow_1_10" result="shape"/>
</filter>
</defs>
</svg>
